<svg xmlns="http://www.w3.org/2000/svg" viewBox="0 0 2800 2000" width="2800" height="2000"><rect x="0" y="0" width="2800" height="2000" fill="#ffffff"/><defs><pattern id="wallPattern" patternUnits="userSpaceOnUse" width="5" height="5" patternTransform="rotate(45)"><rect x="0" y="0" width="5" height="5" fill="white"/><line x1="0" y1="0" x2="0" y2="5" stroke="#666" stroke-width="1"/></pattern></defs><g transform="translate(2125.0324172947403, 1095.062016897356) scale(4.481133462977785)"><g transform="translate(-233.75142531356897, -134.28745432399515) rotate(-165)"><path d="M-80 40H80V-40H-80V40ZM-74.66666666666667 -30.4V-26.4M-74.66666666666667 -22.4V-18.4M-74.66666666666667 -14.399999999999999V-10.399999999999999M-74.66666666666667 -6.399999999999999V-2.3999999999999986M-74.66666666666667 1.6000000000000014V5.600000000000001M-74.66666666666667 9.600000000000001V13.760000000000005M-74.66666666666667 17.760000000000005V21.760000000000005M-74.66666666666667 25.760000000000005V29.760000000000005M-70.61333333333333 -30.4V-26.4M-70.61333333333333 -22.4V-18.4M-70.61333333333333 -14.399999999999999V-10.399999999999999M-70.61333333333333 -6.399999999999999V-2.3999999999999986M-70.61333333333333 1.6000000000000014V5.600000000000001M-70.61333333333333 9.600000000000001V13.760000000000005M-70.61333333333333 17.760000000000005V21.760000000000005M-70.61333333333333 25.760000000000005V29.760000000000005M74.77333333333334 -30.4V-26.4M74.77333333333334 -22.4V-18.4M74.77333333333334 -14.399999999999999V-10.399999999999999M74.77333333333334 -6.399999999999999V-2.3999999999999986M74.77333333333334 1.6000000000000014V5.600000000000001M74.77333333333334 9.600000000000001V13.760000000000005M74.77333333333334 17.760000000000005V21.760000000000005M74.77333333333334 25.760000000000005V29.760000000000005M69.97333333333333 -30.4V-26.4M69.97333333333333 -22.4V-18.4M69.97333333333333 -14.399999999999999V-10.399999999999999M69.97333333333333 -6.399999999999999V-2.3999999999999986M69.97333333333333 1.6000000000000014V5.600000000000001M69.97333333333333 9.600000000000001V13.760000000000005M69.97333333333333 17.760000000000005V21.760000000000005M69.97333333333333 25.760000000000005V29.760000000000005M72.32 -33.12H74.77333333333334M72.32 36.32H74.77333333333334M-73.92 -33.12H-71.36M-73.92 36.32H-71.36M-64.85333333333334 36H61.653333333333336" stroke="#148515" stroke-width="0.3125" fill="#fafafa" opacity="1"/><line x1="-80" y1="40" x2="-80" y2="43.75" stroke="#148515" stroke-width="0.1875"/><line x1="80" y1="40" x2="80" y2="43.75" stroke="#148515" stroke-width="0.1875"/><line x1="-80" y1="42.5" x2="80" y2="42.5" stroke="#148515" stroke-width="0.125"/><line x1="-80" y1="41.5" x2="-80" y2="43.5" stroke="#148515" stroke-width="0.25"/><line x1="80" y1="41.5" x2="80" y2="43.5" stroke="#148515" stroke-width="0.25"/><rect x="-4.5" y="40" width="9" height="5" fill="white" opacity="0.9" rx="0.25"/><text x="0" y="42.5" text-anchor="middle" dominant-baseline="middle" font-size="5" font-weight="bold" fill="#148515">160</text><line x1="80" y1="-40" x2="83.75" y2="-40" stroke="#148515" stroke-width="0.1875"/><line x1="80" y1="40" x2="83.75" y2="40" stroke="#148515" stroke-width="0.1875"/><line x1="82.5" y1="-40" x2="82.5" y2="40" stroke="#148515" stroke-width="0.125"/><line x1="81.5" y1="-40" x2="83.5" y2="-40" stroke="#148515" stroke-width="0.25"/><line x1="81.5" y1="40" x2="83.5" y2="40" stroke="#148515" stroke-width="0.25"/><rect x="79.5" y="-2.5" width="6" height="5" fill="white" opacity="0.9" rx="0.25"/><text x="82.5" y="0" text-anchor="middle" dominant-baseline="middle" font-size="5" font-weight="bold" fill="#148515">80</text><g transform="rotate(180)"><rect x="-12.719999999999999" y="-7.92" width="25.439999999999998" height="15.84" fill="#fff" stroke="#148515" stroke-width="0.25" rx="0.5" opacity="0.95"/><text x="0" y="0" text-anchor="middle" dominant-baseline="middle" font-size="12" font-weight="bold" fill="#148515">ws1</text></g></g><g transform="translate(-222.91904218928164, 64.25091352009741) rotate(0)"><path d="M 40 20H-40V-20H40V20ZM-21.866666666666667 19.285714285714285H-30.4V9.285714285714285H-21.866666666666667V19.285714285714285ZM30.666666666666668 19.285714285714285H22.133333333333333V9.285714285714285H30.666666666666668V19.285714285714285ZM-32.266666666666666 16.428571428571427H-29.6M-19.200000000000003 16.428571428571427H-16.53333333333333M32.266666666666666 16.428571428571427H34.93333333333334M16.800000000000004 16.428571428571427H19.46666666666667M-12.800000000000004 16.428571428571427H-2.13333333333334M4 16.428571428571427H14.666666666666664" stroke="#148515" stroke-width="0.3125" fill="#fafafa" opacity="1"/><line x1="-40" y1="20" x2="-40" y2="23.75" stroke="#148515" stroke-width="0.1875"/><line x1="40" y1="20" x2="40" y2="23.75" stroke="#148515" stroke-width="0.1875"/><line x1="-40" y1="22.5" x2="40" y2="22.5" stroke="#148515" stroke-width="0.125"/><line x1="-40" y1="21.5" x2="-40" y2="23.5" stroke="#148515" stroke-width="0.25"/><line x1="40" y1="21.5" x2="40" y2="23.5" stroke="#148515" stroke-width="0.25"/><rect x="-3" y="20" width="6" height="5" fill="white" opacity="0.9" rx="0.25"/><text x="0" y="22.5" text-anchor="middle" dominant-baseline="middle" font-size="5" font-weight="bold" fill="#148515">80</text><line x1="40" y1="-20" x2="43.75" y2="-20" stroke="#148515" stroke-width="0.1875"/><line x1="40" y1="20" x2="43.75" y2="20" stroke="#148515" stroke-width="0.1875"/><line x1="42.5" y1="-20" x2="42.5" y2="20" stroke="#148515" stroke-width="0.125"/><line x1="41.5" y1="-20" x2="43.5" y2="-20" stroke="#148515" stroke-width="0.25"/><line x1="41.5" y1="20" x2="43.5" y2="20" stroke="#148515" stroke-width="0.25"/><rect x="39.5" y="-2.5" width="6" height="5" fill="white" opacity="0.9" rx="0.25"/><text x="42.5" y="0" text-anchor="middle" dominant-baseline="middle" font-size="5" font-weight="bold" fill="#148515">40</text><g><rect x="-8.16" y="-3.96" width="16.32" height="7.92" fill="#fff" stroke="#148515" stroke-width="0.25" rx="0.5" opacity="0.95"/><text x="0" y="0" text-anchor="middle" dominant-baseline="middle" font-size="6" font-weight="bold" fill="#148515">cab1</text></g></g><g transform="translate(-379.1334093500595, 73.38611449451946) rotate(0)"><path d="M 16.469183475000705 -23.502993996184586L 17.372446390997084 -22.904191582737468C 17.77389657588435 -22.704590778255124 17.874259122106082 -22.105788364808006 17.57317148344066 -21.806387158084448L 15.666283105226285 -18.71257468860773C 15.465558012782708 -18.313373079643014 14.963745281673596 -18.213572677401828 14.562295096786329 -18.4131734818842L 14.06048236567733 -18.71257468860773L 14.461932550564597 -19.31137710205485C 15.164470374117286 -19.111776297572476 15.967370743891706 -19.51097790653722 16.368820928778973 -20.10978031998431C 16.77027111366624 -21.007983940154986 16.56954602122255 -22.00598796256682 15.967370743891706 -22.604790376013938L 16.469183475000705 -23.502993996184586ZM 12.153593987462955 -20.9081835379138C 11.952868895019265 -20.508981928949055 12.05323144124111 -20.009979917743152 12.454681626128377 -19.81037911326078L 12.956494357237375 -19.411177504296035L 13.357944542124642 -20.009979917743124C 12.956494357237375 -20.60878233119024 12.856131811015644 -21.50698595136089 13.257581995902797 -22.105788364808006C 13.759394727011909 -22.904191582737468 14.76302018923002 -23.203592789461027 15.56592055900444 -22.804391180496282L 16.06773329011355 -23.702594800666958L 15.164470374117286 -24.301397214114047C 14.76302018923002 -24.50099801859642 14.361570004342752 -24.401197616355233 14.06048236567733 -24.001996007390517L 12.153593987462955 -20.9081835379138ZM -13.037405114211424 -23.502993996184586C -12.23450474443689 -23.90219560514933 -11.230879282218893 -23.60279439842577 -10.729066551109781 -22.80439118049631C -10.327616366222514 -22.105788364808006 -10.42797891244436 -21.307385146878545 -10.829429097331627 -20.708582733431427L -10.42797891244436 -20.009979917743152L -9.926166181335361 -20.40918152670787C -9.524715996448094 -20.60878233119024 -9.42435345022625 -21.20758474463736 -9.725441088891671 -21.50698595136089L -11.632329467106047 -24.600798420837606C -11.833054559549737 -25.00000002980235 -12.334867290658735 -25.099800432043537 -12.736317475546002 -24.900199627561165L -13.639580391542268 -24.301397214114047L -13.037405114211424 -23.502993996184586ZM -13.13776766043327 -19.211576699813662C -12.937042567989579 -18.812375090848917 -12.43522983688058 -18.71257468860773 -12.033779651993314 -18.912175493090103L -11.531966920884315 -19.31137710205485L -11.933417105771468 -19.910179515501966C -12.635954929324157 -19.81037911326078 -13.438855299098691 -20.10978031998431 -13.840305483985958 -20.708582733431427C -14.342118215094956 -21.50698595136089 -14.14139312265138 -22.604790376013938 -13.438855299098691 -23.10379238721984L -13.94066803020769 -23.90219560514933L -14.843930946203955 -23.303393191702213C -15.14501858486949 -23.203592789461027 -15.245381131091222 -22.704590778255124 -15.044656038647645 -22.405189571531565L -13.13776766043327 -19.211576699813662ZM -23.87656010616695 4.540919033588153C -23.97692265238868 3.6427154134175055 -23.374747375057837 2.7445117932468577 -22.47148445906157 2.544910988764485C -21.768946635508883 2.3453101842821127 -20.966046265734462 2.7445117932468577 -20.564596080847195 3.343314206693975L -19.862058257294507 3.1437134022116027L -20.062783349738083 2.544910988764485C -20.16314589595993 2.14570937979974 -20.564596080847195 1.8463081730762099 -20.966046265734462 1.9461085753173677L -24.378372837275947 2.7445117932468577C -24.779823022163214 2.8443121954880723 -25.080910660828636 3.2435138044527605 -24.98054811460679 3.74251581565872L -24.779823022163214 4.8403202403117405L -23.87656010616695 4.540919033588153ZM -20.16314589595993 6.137725469447133C -19.76169571107266 6.037925067205919 -19.46060807240724 5.638723458241174 -19.560970618629085 5.139721447035271L -19.66133316485093 4.4411186313469955L -20.36387098840362 4.640719435829368C -20.46423353462535 5.439122653758858 -20.966046265734462 6.037925067205919 -21.768946635508883 6.237525871688291C -22.672209551505148 6.437126676170664 -23.575472467501527 5.938124664964761 -23.87656010616695 5.039921044794113L -24.779823022163214 5.2395218492764855L -24.579097929719637 6.337326273929506C -24.478735383497792 6.736527882894251 -24.077285198610525 7.035929089617781 -23.67583501372326 6.936128687376623L -20.16314589595993 6.137725469447133ZM -10.528341458666205 -17.61477026395471C -10.327616366222514 -17.61477026395471 -10.026528727557093 -17.61477026395471 -9.825803635113516 -17.61477026395471L -9.123265811560827 -17.61477026395471L -10.929791643553358 -20.60878233119024C -10.528341458666205 -21.20758474463736 -10.42797891244436 -22.105788364808006 -10.829429097331627 -22.704590778255124C -11.331241828440625 -23.60279439842577 -12.43522983688058 -23.802395202908144 -13.338492752876846 -23.303393191702213C -14.14139312265138 -22.704590778255124 -14.442480761316801 -21.606786353602075 -13.94066803020769 -20.708582733431427C -13.539217845320422 -20.009979917743124 -12.736317475546002 -19.710578711019593 -12.033779651993314 -19.910179515501966L -10.528341458666205 -17.61477026395471ZM 23.394199164305633 7.235529894100154C 22.79202388697479 7.934132709788429 21.888760970978524 8.133733514270801 21.08586060120399 7.634731503064899C 20.383322777651415 7.235529894100154 20.08223513898588 6.437126676170664 20.28296023142957 5.638723458241174L 19.680784954098726 5.2395218492764855L 19.27933476921146 5.938124664964761C 19.07860967676777 6.337326273929506 19.178972222989614 6.836328285135409 19.58042240787688 7.035929089617781L 22.591298794531212 8.932136732200291C 22.99274897941848 9.131737536682664 23.494561710527478 9.03193713444145 23.695286802971054 8.632735525476704L 24.197099534080166 7.734531905306056L 23.394199164305633 7.235529894100154ZM 21.688035878534834 3.343314206693975C 21.28658569364768 3.1437134022116027 20.784772962538568 3.2435138044527605 20.58404787009499 3.6427154134175055L 20.28296023142957 4.241517826864623L 20.885135508760413 4.640719435829368C 21.487310786091257 4.141717424623465 22.29021115586579 4.0419170223822505 22.892386433196634 4.540919033588153C 23.695286802971054 5.039921044794113 23.996374441636476 6.037925067205919 23.594924256749323 6.936128687376623L 24.397824626523743 7.435130698582526L 24.899637357632855 6.536927078411878C 25.10036245007643 6.137725469447133 24.999999903854587 5.6387234582412304 24.598549718967433 5.439122653758858L 21.688035878534834 3.343314206693975ZM -1.596074844925056 21.407187012348317C -1.696437391146901 21.60678781683069 -1.696437391146901 21.80638862131306 -1.696437391146901 22.005989425795434C -1.696437391146901 23.00399344820724 -0.8935370213723672 23.902197068377887 0.11008844084574321 23.902197068377887C 1.1137139030638536 23.902197068377887 1.9166142728382738 23.103793850448454 1.9166142728382738 22.005989425795434C 1.9166142728382738 21.80638862131306 1.9166142728382738 21.706588219071847 1.8162517266164286 21.506987414589474C 0.6119011719547416 21.60678781683069 -0.4920868364851003 21.506987414589474 -1.596074844925056 21.407187012348317ZM 1.8162517266164286 21.60678781683069C 1.8162517266164286 21.706588219071847 1.9166142728382738 21.90618902355422 1.9166142728382738 22.105789828036592C 1.9166142728382738 23.103793850448454 1.2140764492855851 23.80239666613673 0.3108135332893198 24.001997470619102L 0.3108135332893198 25.000001493030908L 1.3144389955074303 25.000001493030908C 1.7158891803946972 25.000001493030908 2.117339365281964 24.60079988406622 2.117339365281964 24.201598275101475L 2.117339365281964 21.706588219071847C 2.016976819060119 21.506987414589474 1.9166142728382738 21.60678781683069 1.8162517266164286 21.60678781683069ZM -1.9975250298123228 21.407187012348317L -1.9975250298123228 24.001997470619102C -1.9975250298123228 24.500999481825005 -1.696437391146901 24.800400688548592 -1.194624660037789 24.800400688548592L -0.19099919781967856 24.800400688548592L -0.19099919781967856 23.80239666613673C -1.0942621138160575 23.702596263895515 -1.7967999373686325 22.904193045966082 -1.7967999373686325 21.90618902355422C -1.7967999373686325 21.706588219071847 -1.7967999373686325 21.506987414589474 -1.696437391146901 21.30738661010716C -1.7967999373686325 21.407187012348317 -1.8971624835904777 21.407187012348317 -1.9975250298123228 21.407187012348317ZM 20.885135508760413 4.640719435829368L 17.472808937218815 2.4451105865233274L 17.472808937218815 3.9421166201410927L 20.28296023142957 5.738523860482388C 20.182597685207725 6.437126676170664 20.483685323873146 7.235529894100154 21.08586060120399 7.734531905306056C 21.888760970978524 8.233533916512016 22.992748979418366 8.033933112029644 23.594924256749323 7.135729491858996S 23.7956493491929 5.139721447035271 22.992748979418366 4.540919033588153C 22.29021115586579 4.0419170223822505 21.487310786091257 4.141717424623465 20.885135508760413 4.640719435829368ZM 13.257581995902797 -22.205588767049193C 12.856131811015644 -21.50698595136089 12.956494357237375 -20.708582733431427 13.357944542124642 -20.10978031998431L 11.651781256353843 -17.215568654989994C 12.153593987462955 -17.215568654989994 12.555044172350222 -17.115768252748808 12.956494357237375 -16.916167448266435L 14.461932550564597 -19.31137710205485C 15.164470374117286 -19.111776297572476 15.967370743891706 -19.51097790653722 16.368820928778973 -20.10978031998431C 16.87063365988797 -21.007983940154986 16.669908567444395 -22.105788364808006 15.76664565144813 -22.704590778255124C 14.86338273545175 -23.303393191702213 13.759394727011909 -23.10379238721984 13.257581995902797 -22.205588767049193ZM -16.148644047087487 2.3453101842821127L -20.66495862706904 3.343314206693975C -21.066408811956194 2.7445117932468577 -21.768946635508883 2.3453101842821127 -22.571847005283416 2.544910988764485C -23.575472467501527 2.7445117932468577 -24.17764774483237 3.74251581565872 -23.97692265238868 4.740519838070526C -23.776197559945103 5.738523860482388 -22.772572097726993 6.437126676170664 -21.869309181730728 6.137725469447133C -21.16677135817804 5.938124664964761 -20.564596080847195 5.339322251517643 -20.46423353462535 4.540919033588153L -16.249006593309332 3.6427154134175055L -16.148644047087487 2.3453101842821127ZM -14.241755668873111 -11.926147336207208L -14.241755668873111 -11.926147336207208C -15.245381131091222 -11.926147336207208 -16.148644047087487 -11.02794371603656 -16.148644047087487 -9.93013929138354L -16.148644047087487 6.037925067205919C -16.148644047087487 7.135729491858996 -15.345743677313067 8.033933112029644 -14.241755668873111 8.033933112029644L -14.241755668873111 8.033933112029644C -13.238130206655 8.033933112029644 -12.334867290658735 7.135729491858996 -12.334867290658735 6.037925067205919L -12.334867290658735 -9.93013929138354C -12.334867290658735 -11.02794371603656 -13.13776766043327 -11.926147336207208 -14.241755668873111 -11.926147336207208ZM 11.350693617688421 -17.215568654989994L -9.825803635113516 -17.61477026395471C -12.836680021767847 -17.714570666195897 -15.345743677313067 -15.119760207925111 -15.446106223534912 -11.926147336207208L -15.446106223534912 -11.327344922760119C -15.14501858486949 -11.626746129483678 -14.743568399982223 -11.826346933966022 -14.241755668873111 -11.826346933966022C -13.238130206655 -11.826346933966022 -12.334867290658735 -10.928143313795374 -12.334867290658735 -9.830338889142325L -12.334867290658735 6.137725469447133C -12.334867290658735 6.536927078411878 -12.43522983688058 6.936128687376623 -12.635954929324157 7.235529894100154C -12.033779651993314 7.834332307547271 -11.331241828440625 8.333334318753174 -10.628704004887936 8.832336329959134C -5.209126508910231 12.724552017365312 6.031478667932561 12.52495121288294 11.049605979023 10.12974155909447C 12.05323144124111 9.630739547888567 13.05685690345922 9.03193713444145 13.960119819455485 8.233533916512016C 13.85975727323364 7.934132709788429 13.759394727011909 7.634731503064899 13.759394727011909 7.335330296341311L 13.759394727011909 -8.632734062248147C 13.759394727011909 -9.730538486901168 14.662657643008174 -10.628742107071815 15.666283105226285 -10.628742107071815C 16.06773329011355 -10.628742107071815 16.469183475000705 -10.429141302589443 16.77027111366624 -10.22954049810707L 16.77027111366624 -11.227544520518933C 16.77027111366624 -14.520957794477994 14.361570004342752 -17.115768252748808 11.350693617688421 -17.215568654989994ZM 15.56592055900444 9.131737536682664L 15.56592055900444 9.131737536682664C 14.86338273545175 9.131737536682664 14.261207458120907 8.732535927717919 13.85975727323364 8.033933112029644C 13.05685690345922 8.832336329959077 12.05323144124111 9.530939145647409 11.049605979023 10.029941156853312C 6.031478667932561 12.425150810641725 -5.209126508910231 12.624751615124097 -10.628704004887936 8.732535927717919C -11.331241828440625 8.233533916512016 -12.033779651993314 7.734531905306056 -12.635954929324157 7.135729491858996C -12.937042567989579 7.634731503064899 -13.539217845320422 8.033933112029644 -14.241755668873111 8.033933112029644L -14.241755668873111 8.033933112029644C -14.743568399982223 8.033933112029644 -15.14501858486949 7.834332307547271 -15.446106223534912 7.534931100823684L -15.446106223534912 13.12375362633C -15.446106223534912 15.818364486842 -13.037405114211424 17.71457212942451 -10.327616366222514 19.211578163042276C -5.008401416466654 22.205590230277807 5.931116121710716 22.105789828036592 10.748518340357577 20.309382587695296C 13.960119819455485 19.11177776080106 16.56954602122255 16.91616891149502 16.669908567444395 13.722556039777118L 16.669908567444395 8.832336329959134C 16.368820928778973 9.03193713444145 15.967370743891706 9.131737536682664 15.56592055900444 9.131737536682664ZM 15.56592055900444 -10.728542509313002L 15.56592055900444 -10.728542509313002C 14.562295096786329 -10.728542509313002 13.659032180790064 -9.830338889142325 13.659032180790064 -8.732534464489305L 13.659032180790064 7.235529894100154C 13.659032180790064 8.333334318753174 14.461932550564597 9.231537938923822 15.56592055900444 9.231537938923822L 15.56592055900444 9.231537938923822C 16.56954602122255 9.231537938923822 17.472808937218815 8.333334318753174 17.472808937218815 7.235529894100154L 17.472808937218815 -8.732534464489305C 17.472808937218815 -9.830338889142325 16.669908567444395 -10.728542509313002 15.56592055900444 -10.728542509313002Z" stroke="#148515" stroke-width="0.3125" fill="#fafafa" opacity="1"/></g></g><rect x="-358.1133462977785" y="-358.1133462977785" width="2466.3351260860227" height="2566.2266925955573" fill="none" stroke="#000" stroke-width="2"/><rect x="-115.53431419415244" y="-358.1133462977785" width="448.1133462977785" height="448.1133462977785" fill="#fff" stroke="#000" stroke-width="1"/><text x="108.5223589547368" y="-134.05667314888925" text-anchor="middle" dominant-baseline="middle" font-size="12" font-weight="bold" fill="#000">A</text><rect x="332.57903210362605" y="-358.1133462977785" width="448.1133462977785" height="448.1133462977785" fill="#fff" stroke="#000" stroke-width="1"/><text x="556.6357052525153" y="-134.05667314888925" text-anchor="middle" dominant-baseline="middle" font-size="12" font-weight="bold" fill="#000">B</text><rect x="780.6923784014045" y="-358.1133462977785" width="448.11334629777843" height="448.1133462977785" fill="#fff" stroke="#000" stroke-width="1"/><text x="1004.7490515502938" y="-134.05667314888925" text-anchor="middle" dominant-baseline="middle" font-size="12" font-weight="bold" fill="#000">C</text><rect x="1228.805724699183" y="-358.1133462977785" width="448.11334629777843" height="448.1133462977785" fill="#fff" stroke="#000" stroke-width="1"/><text x="1452.8623978480723" y="-134.05667314888925" text-anchor="middle" dominant-baseline="middle" font-size="12" font-weight="bold" fill="#000">D</text><rect x="1676.9190709969614" y="-358.1133462977785" width="448.11334629777843" height="448.1133462977785" fill="#fff" stroke="#000" stroke-width="1"/><text x="1900.9757441458505" y="-134.05667314888925" text-anchor="middle" dominant-baseline="middle" font-size="12" font-weight="bold" fill="#000">E</text><rect x="-358.1133462977785" y="-249.27802199597932" width="448.1133462977785" height="448.1133462977785" fill="#fff" stroke="#000" stroke-width="1"/><text x="-134.05667314888925" y="-25.22134884709007" text-anchor="middle" dominant-baseline="middle" font-size="12" font-weight="bold" fill="#000">1</text><rect x="-358.1133462977785" y="198.83532430179918" width="448.1133462977785" height="448.1133462977785" fill="#fff" stroke="#000" stroke-width="1"/><text x="-134.05667314888925" y="422.89199745068845" text-anchor="middle" dominant-baseline="middle" font-size="12" font-weight="bold" fill="#000">2</text><rect x="-358.1133462977785" y="646.9486705995777" width="448.1133462977785" height="448.1133462977783" fill="#fff" stroke="#000" stroke-width="1"/><text x="-134.05667314888925" y="871.0053437484669" text-anchor="middle" dominant-baseline="middle" font-size="12" font-weight="bold" fill="#000">3</text><rect x="-358.1133462977785" y="1095.062016897356" width="448.1133462977785" height="448.11334629777843" fill="#fff" stroke="#000" stroke-width="1"/><text x="-134.05667314888925" y="1319.1186900462453" text-anchor="middle" dominant-baseline="middle" font-size="12" font-weight="bold" fill="#000">4</text><rect x="-358.1133462977785" y="1543.1753631951344" width="448.1133462977785" height="448.11334629777843" fill="#fff" stroke="#000" stroke-width="1"/><text x="-134.05667314888925" y="1767.2320363440235" text-anchor="middle" dominant-baseline="middle" font-size="12" font-weight="bold" fill="#000">5</text><rect x="-358.1133462977785" y="1991.2887094929129" width="448.1133462977785" height="448.11334629777866" fill="#fff" stroke="#000" stroke-width="1"/><text x="-134.05667314888925" y="2215.345382641802" text-anchor="middle" dominant-baseline="middle" font-size="12" font-weight="bold" fill="#000">6</text><line x1="90" y1="1775" x2="538.1133462977784" y2="1775" stroke="#000" stroke-width="2"/><line x1="90" y1="1770" x2="90" y2="1780" stroke="#000" stroke-width="2"/><line x1="538.1133462977784" y1="1770" x2="538.1133462977784" y2="1780" stroke="#000" stroke-width="2"/><text x="314.0566731488892" y="1795" text-anchor="middle" font-size="11" fill="#000">1 m</text><text x="558.1133462977784" y="1779" font-size="11" fill="#666">Scale 1:0</text><text x="2420" y="70" font-size="16" font-weight="600" fill="#000">Connections</text><rect x="2420" y="95" width="310" height="80" fill="#fff" stroke="#000" stroke-width="1"/><text x="2432" y="121" font-size="14" font-weight="600" fill="#000">ws1 (1 link)</text><text x="2432" y="139" font-size="13" fill="#000">Grid: (-C)-1</text><text x="2432" y="151" font-size="13" fill="#000">Distance:</text><text x="2718" y="151" font-size="13" font-weight="600" fill="#000" text-anchor="end">0.73 m</text><text x="2432" y="165" font-size="13" fill="#000">Time:</text><text x="2718" y="165" font-size="13" font-weight="600" fill="#000" text-anchor="end">0.5 s</text><rect x="50" y="1800" width="2700" height="150" fill="none" stroke="#000" stroke-width="2"/><text x="70" y="1835" font-size="20" font-weight="bold" fill="#000">Project name</text><text x="70" y="1923" font-size="12" fill="#333">Creator:</text><text x="140" y="1923" font-size="12" font-weight="600" fill="#000">Creator</text><text x="320" y="1923" font-size="12" fill="#333">Date:</text><text x="370" y="1923" font-size="12" font-weight="600" fill="#000">2026-01-04</text><text x="570" y="1923" font-size="12" fill="#333">Notes:</text><text x="625" y="1923" font-size="12" fill="#666">Comment</text></svg>