<?xml version="1.0" encoding="UTF-8" standalone="no"?>
<!-- Created with Inkscape (http://www.inkscape.org/) -->
<svg version="1.1" id="svg24881" width="94.77626" height="94.776115" viewBox="0 0 94.776261 94.776119" sodipodi:docname="veb-katalog_znakov_bezopasnosti_150915.pdf" xmlns:inkscape="http://www.inkscape.org/namespaces/inkscape" xmlns:sodipodi="http://sodipodi.sourceforge.net/DTD/sodipodi-0.dtd" xmlns="http://www.w3.org/2000/svg" xmlns:svg="http://www.w3.org/2000/svg">
  <defs id="defs24885"/>
  <sodipodi:namedview id="namedview24883" pagecolor="#ffffff" bordercolor="#000000" borderopacity="0.25" inkscape:showpageshadow="2" inkscape:pageopacity="0.0" inkscape:pagecheckerboard="0" inkscape:deskcolor="#d1d1d1" showgrid="false"/>
  <g id="g24887" inkscape:groupmode="layer" inkscape:label="veb-katalog_znakov_bezopasnosti_15091512" transform="matrix(1.3333333,0,0,-1.3333333,-18.753599,700.12494)">
    <g id="g25035">
      <path d="M 14.1732,524.9857 H 85.0394 V 454.1196 H 14.1732 Z" style="fill:#ffffff;stroke:#c6c6c7;stroke-width:0.216;stroke-linecap:butt;stroke-linejoin:miter;stroke-miterlimit:22.9256;stroke-dasharray:none;stroke-opacity:1" id="path25061"/>
      <path d="M 17.0079,522.1511 H 82.205 V 456.9542 H 17.0079 Z" style="fill:#00844b;fill-opacity:1;fill-rule:evenodd;stroke:none" id="path25037"/>
      <path d="m 31.8535,510.1733 v 0 l -0.525,6.8805 3.5549,-3.5549 0.3093,-9.4643 -9.4643,0.309 -3.555,3.5552 6.88,-0.525 -9.0133,9.0128 2.7989,2.7994 z" style="fill:#ffffff;fill-opacity:1;fill-rule:evenodd;stroke:none" id="path25039"/>
      <path d="m 67.3605,468.9326 -0.0011,-10e-4 0.5247,-6.8803 -3.5549,3.5549 -0.309,9.4646 9.4643,-0.3092 3.5549,-3.5549 -6.8799,0.5249 9.013,-9.013 -2.7986,-2.7992 -9.0134,9.0133 z" style="fill:#ffffff;fill-opacity:1;fill-rule:evenodd;stroke:none" id="path25041"/>
      <path d="m 31.8523,468.9326 0.0012,-10e-4 -0.525,-6.8803 3.5549,3.5549 0.3093,9.4646 -9.4643,-0.3092 -3.555,-3.5549 6.88,0.5249 -9.0133,-9.013 2.7989,-2.7992 9.0133,9.0133 z" style="fill:#ffffff;fill-opacity:1;fill-rule:evenodd;stroke:none" id="path25043"/>
      <path d="m 67.3605,510.1727 -0.0011,10e-4 0.5247,6.8799 -3.5549,-3.5549 -0.309,-9.4643 9.4643,0.309 3.5549,3.5552 -6.8799,-0.525 9.013,9.0128 -2.7986,2.7994 -9.0134,-9.0133 z" style="fill:#ffffff;fill-opacity:1;fill-rule:evenodd;stroke:none" id="path25045"/>
      <path d="m 59.3362,500.6775 c 1.6226,0 2.9466,-1.3241 2.9466,-2.9477 0,-1.6226 -1.324,-2.9467 -2.9466,-2.9467 -1.6237,0 -2.9477,1.3241 -2.9477,2.9467 0,1.6236 1.324,2.9477 2.9477,2.9477" style="fill:#ffffff;fill-opacity:1;fill-rule:evenodd;stroke:none" id="path25047"/>
      <path d="m 49.4376,504.8527 c -1.6225,0 -2.9466,-1.3241 -2.9466,-2.9478 0,-1.6225 1.3241,-2.9466 2.9466,-2.9466 1.6237,0 2.9478,1.3241 2.9478,2.9466 0,1.6237 -1.3241,2.9478 -2.9478,2.9478" style="fill:#ffffff;fill-opacity:1;fill-rule:evenodd;stroke:none" id="path25049"/>
      <path d="m 49.3659,497.2391 c 1.6226,0 2.9464,-1.3241 2.9464,-2.9478 0,-1.6225 -1.3238,-2.9466 -2.9464,-2.9466 -1.6239,0 -2.9477,1.3241 -2.9477,2.9466 0,1.6237 1.3238,2.9478 2.9477,2.9478" style="fill:#ffffff;fill-opacity:1;fill-rule:evenodd;stroke:none" id="path25051"/>
      <path d="m 54.2259,474.482 v 10.2736 c 0,0 0.0729,0.4498 -0.4087,0.4498 -0.2557,0 -0.6066,0 -0.881,0 v -10.9522 h -6.8236 v 10.9522 c -0.2551,0 -0.553,0 -0.7764,0 -0.4816,0 -0.4088,-0.4498 -0.4088,-0.4498 V 474.482 l -2.1248,-0.0425 c 0,0 -0.0406,12.0758 0,13.7951 0.0405,1.7192 1.828,1.7356 1.828,1.7356 3.297,0 6.5951,0 9.8921,0 0,0 1.7875,-0.0164 1.8281,-1.7356 0.0405,-1.7193 0,-13.7951 0,-13.7951 z" style="fill:#ffffff;fill-opacity:1;fill-rule:evenodd;stroke:none" id="path25053"/>
      <path d="m 42.266,477.2823 h -6.287 v 10.9523 c -0.2551,0 -0.553,0 -0.7764,0 -0.4816,0 -0.4073,-0.4499 -0.4073,-0.4499 v -10.2739 l -2.1269,-0.0422 c 0,0 -0.0405,12.0758 0,13.7951 0.0409,1.7192 1.8287,1.7356 1.8287,1.7356 3.2969,0 6.5939,0 9.892,0 0,0 1.8023,0.1077 1.8281,-1.7356 l 0.0108,-0.7634 c -0.5332,0 -1.0644,0 -1.5968,0 0,0 -2.3182,0.0907 -2.3581,-2.2657 -0.0289,-1.1832 -0.017,-7.2701 -0.0071,-10.9523" style="fill:#ffffff;fill-opacity:1;fill-rule:evenodd;stroke:none" id="path25055"/>
      <path d="m 56.948,477.2823 h 6.2864 v 10.9523 c 0.2551,0 0.5531,0 0.7764,0 0.4816,0 0.4085,-0.4499 0.4085,-0.4499 v -10.2739 l 2.1251,-0.0422 c 0,0 0.0406,12.0758 0,13.7951 -0.0408,1.7192 -1.8283,1.7356 -1.8283,1.7356 -3.2967,0 -6.5948,0 -9.8918,0 0,0 -1.8028,0.1077 -1.828,-1.7356 l -0.0108,-0.7634 c 0.5329,0 1.0641,0 1.5973,0 0,0 2.3176,0.0907 2.3581,-2.2657 0.0278,-1.1832 0.0165,-7.2701 0.0071,-10.9523" style="fill:#ffffff;fill-opacity:1;fill-rule:evenodd;stroke:none" id="path25057"/>
      <path d="m 39.4268,500.6775 c -1.6225,0 -2.9466,-1.3241 -2.9466,-2.9477 0,-1.6226 1.3241,-2.9467 2.9466,-2.9467 1.6237,0 2.9475,1.3241 2.9475,2.9467 0,1.6236 -1.3238,2.9477 -2.9475,2.9477" style="fill:#ffffff;fill-opacity:1;fill-rule:evenodd;stroke:none" id="path25059"/>
    </g>
  </g>
</svg>