<?xml version="1.0" encoding="UTF-8"?>
<!-- Generator: Adobe Illustrator 16.0.3, SVG Export Plug-In . SVG Version: 6.00 Build 0)  -->
<!DOCTYPE svg PUBLIC "-//W3C//DTD SVG 1.1//EN" "http://www.w3.org/Graphics/SVG/1.1/DTD/svg11.dtd">
<svg version="1.1" id="Layer_1" xmlns="http://www.w3.org/2000/svg" xmlns:xlink="http://www.w3.org/1999/xlink" x="0px" y="0px" width="602.5px" height="291.532px" viewBox="0 0 602.5 291.532" enable-background="new 0 0 602.5 291.532" xml:space="preserve">
<rect fill="#247F52" width="602.5" height="291.532"/>
<g>
	<g>
		<polygon fill="#FFFFFF" points="207.112,161.596 379.5,161.596 379.5,147.422 207.112,147.422 207.112,130.48 165.5,154.508     207.112,178.538   "/>
		<rect x="31.5" y="36.823" fill="#FFFFFF" width="115" height="217.884"/>
	</g>
	<path fill="#FFFFFF" d="M464.582,60.583c0.163,12.954-9.946,23.589-22.577,23.76c-12.635,0.167-23.008-10.198-23.171-23.152   c-0.003-0.202-0.003-0.404,0-0.608c-0.164-12.954,9.946-23.59,22.578-23.758c12.633-0.167,23.007,10.196,23.17,23.152   C464.586,60.177,464.586,60.379,464.582,60.583z"/>
	<path fill="#FFFFFF" d="M392.118,129.405l0.072,18.878l62.867,0.146v-27.616l23.356,40.686l-41.277,25.045v68.162h19.688   l-0.074-57.217l41.791-24.754l-0.147,50.023l77.047-0.225v-20.27l-56.925,0.148l0.146-48.33l-38.854-65.372l33.644,0.073   l21.735,36.58l16.307-9.842l-27.982-45.982l-54.277,0.153c-5.41,15.467-16.435,21.437-32.024,19.683l-0.076,39.663L392.118,129.405   z"/>
</g>
</svg>