<?xml version="1.0" encoding="UTF-8" standalone="no"?>
<svg xmlns:dc="http://purl.org/dc/elements/1.1/" xmlns:cc="http://creativecommons.org/ns#" xmlns:rdf="http://www.w3.org/1999/02/22-rdf-syntax-ns#" xmlns:svg="http://www.w3.org/2000/svg" xmlns="http://www.w3.org/2000/svg" viewBox="0 0 94.666664 94.666664" height="94.666664" width="94.666664" xml:space="preserve" id="svg2" version="1.1"><metadata id="metadata8"><rdf:RDF><cc:Work rdf:about=""><dc:format>image/svg+xml</dc:format><dc:type rdf:resource="http://purl.org/dc/dcmitype/StillImage"/></cc:Work></rdf:RDF></metadata><defs id="defs6"/><g transform="matrix(1.3333333,0,0,-1.3333333,0,94.666667)" id="g10"><g transform="scale(0.1)" id="g12"><path id="path14" style="fill:#d40000;fill-opacity:1;fill-rule:nonzero;stroke:none" d="M 0.0390625,1.64063 H 700.85906 v 708.238 H 0.0390625 Z"/><path id="path16" style="fill:#ffffff;fill-opacity:1;fill-rule:nonzero;stroke:none" d="m 208.59,584.73 c 0,-26.609 -21.559,-48.171 -48.16,-48.171 -26.602,0 -48.16,21.562 -48.16,48.171 0,26.598 21.558,48.161 48.16,48.161 26.601,0 48.16,-21.563 48.16,-48.161"/><path id="path18" style="fill:none;stroke:#ffffff;stroke-width:10;stroke-linecap:butt;stroke-linejoin:miter;stroke-miterlimit:4;stroke-dasharray:none;stroke-opacity:1" d="m 208.59,584.73 c 0,-26.609 -21.559,-48.171 -48.16,-48.171 -26.602,0 -48.16,21.562 -48.16,48.171 0,26.598 21.558,48.161 48.16,48.161 26.601,0 48.16,-21.563 48.16,-48.161"/><path id="path20" style="fill:#ffffff;fill-opacity:1;fill-rule:nonzero;stroke:none" d="m 208.59,584.73 c 0,-26.609 -21.559,-48.171 -48.16,-48.171 -26.602,0 -48.16,21.562 -48.16,48.171 0,26.598 21.558,48.161 48.16,48.161 26.601,0 48.16,-21.563 48.16,-48.161 z"/><path id="path22" style="fill:none;stroke:#ffffff;stroke-width:16.81389999;stroke-linecap:butt;stroke-linejoin:miter;stroke-miterlimit:4;stroke-dasharray:none;stroke-opacity:1" d="M 119.648,513.359 H 89.0195 v 144.61 H 229.961 V 513.359 H 191.02"/><path id="path24" style="fill:#ffffff;fill-opacity:1;fill-rule:nonzero;stroke:none" d="m 578.52,548.551 c 0,0 30.582,-94.531 73.242,-106.602 v -77.847 c 0,0 -114.032,62.109 -73.242,184.449"/><path id="path26" style="fill:#ffffff;fill-opacity:1;fill-rule:nonzero;stroke:none" d="m 468.199,514.301 c 0,0 59.34,14.801 93.602,-67.699 4.179,-10.043 28.75,-85.274 89.019,-116.801 0,0 -61.172,-19.25 -105.66,33.359 -10.238,12.07 -29.691,40.789 -41.762,83.442 -12.027,42.66 -16.679,57.457 -35.199,67.699"/><path id="path28" style="fill:#ffffff;fill-opacity:1;fill-rule:nonzero;stroke:none" d="m 484.879,401.172 c 0,0 75.082,-101.953 165,-112.192 v -76.91 c 0,0 -169.649,30.59 -165,189.102"/><path id="path30" style="fill:#ffffff;fill-opacity:1;fill-rule:nonzero;stroke:none" d="m 484.879,401.172 c 0,0 75.082,-101.953 165,-112.192 v -76.91 c 0,0 -169.649,30.59 -165,189.102 z"/><path id="path32" style="fill:none;stroke:#d40000;stroke-width:0.960976;stroke-linecap:butt;stroke-linejoin:miter;stroke-miterlimit:4;stroke-dasharray:none;stroke-opacity:1" d="m 484.879,401.172 c 0,0 75.082,-101.953 165,-112.192 v -76.91 c 0,0 -169.649,30.59 -165,189.102 z"/><path id="path34" style="fill:#ffffff;fill-opacity:1;fill-rule:nonzero;stroke:none" d="m 431.09,253.789 c 0,0 54.73,44.492 119.609,-18.559 21.18,-20.539 40.781,-43.589 100.121,-56.558 0,0 -43.55,-52.813 -114.019,-11.094 -26.141,15.473 -41.18,43.942 -53.789,56.524 -16.684,16.718 -38.91,27.847 -51.922,29.687"/><path id="path36" style="fill:none;stroke:#ffffff;stroke-width:0.960976;stroke-linecap:butt;stroke-linejoin:miter;stroke-miterlimit:4;stroke-dasharray:none;stroke-opacity:1" d="m 431.09,253.789 c 0,0 54.73,44.492 119.609,-18.559 21.18,-20.539 40.781,-43.589 100.121,-56.558 0,0 -43.55,-52.813 -114.019,-11.094 -26.141,15.473 -41.18,43.942 -53.789,56.524 -16.684,16.718 -38.91,27.808 -51.922,29.687 z"/><path id="path38" style="fill:#ffffff;fill-opacity:1;fill-rule:nonzero;stroke:none" d="m 483.949,174.059 c 0,0 69.531,-67.649 165.93,-35.231 V 65.5898 c 0,0 -152.969,-22.2695 -165.93,108.4692"/><path id="path40" style="fill:none;stroke:#ffffff;stroke-width:0.960976;stroke-linecap:butt;stroke-linejoin:miter;stroke-miterlimit:4;stroke-dasharray:none;stroke-opacity:1" d="m 483.949,174.059 c 0,0 69.531,-67.649 165.93,-35.231 V 65.5898 c 0,0 -152.969,-22.2695 -165.93,108.4692 z"/><path id="path42" style="fill:#ffffff;fill-opacity:1;fill-rule:nonzero;stroke:none" d="m 184.219,507.77 c 0,12.308 -12.188,22.269 -27.188,22.269 -15.043,0 -27.191,-9.961 -27.191,-22.269 V 239.879 H 114.059 L 115,333.52 c 0,18.511 -15.8984,35.859 -30.9414,35.859 -15,0 -27.1484,-9.969 -27.1484,-22.27 v -135.98 c 0,0 52.4998,-107.539 57.1488,-115.8595 4.652,-8.3593 8.363,-18.5507 8.363,-30.6211 H 330.98 V 103.59 c 0,0 24.098,18.558 24.098,41.719 0,23.171 0.781,188.832 0.781,188.832 1.02,12.23 -2.308,24.918 -20.121,24.918 -12.218,0 -23.277,-10.739 -27.929,-25.539 l -1.09,26.558 c 1.211,12.223 -9.418,23.402 -23.75,24.922 -14.34,1.52 -26.949,-7.109 -28.168,-19.34 h -7.223 l -0.348,20.981 c 0,12.308 -12.152,22.269 -27.191,22.269 -15,0 -27.187,-9.961 -27.187,-22.269 h -8.321 l -0.312,121.129"/><path id="path44" style="fill:#ffffff;fill-opacity:1;fill-rule:nonzero;stroke:none" d="m 184.219,507.77 c 0,12.308 -12.188,22.269 -27.188,22.269 -15.043,0 -27.191,-9.961 -27.191,-22.269 V 239.879 H 114.059 L 115,333.52 c 0,18.511 -15.8984,35.859 -30.9414,35.859 -15,0 -27.1484,-9.969 -27.1484,-22.27 v -135.98 c 0,0 52.4998,-107.539 57.1488,-115.8595 4.652,-8.3593 8.363,-18.5507 8.363,-30.6211 H 330.98 V 103.59 c 0,0 24.098,18.558 24.098,41.719 0,23.171 0.781,188.832 0.781,188.832 1.02,12.23 -2.308,24.918 -20.121,24.918 -12.218,0 -23.277,-10.739 -27.929,-25.539 l -1.09,26.558 c 1.211,12.223 -9.418,23.402 -23.75,24.922 -14.34,1.52 -26.949,-7.109 -28.168,-19.34 h -7.223 l -0.348,20.981 c 0,12.308 -12.152,22.269 -27.191,22.269 -15,0 -27.187,-9.961 -27.187,-22.269 h -8.321 z"/><g transform="scale(0.994604,1.0054)" id="g46"><path id="path48" style="fill:none;stroke:#ffffff;stroke-width:14.2755003;stroke-linecap:butt;stroke-linejoin:miter;stroke-miterlimit:3.86400008;stroke-dasharray:none;stroke-opacity:1" d="M 7.23042,698.928 H 697.478 V 8.67196 H 7.23042 Z"/></g><g transform="scale(0.994605,1.0054)" id="g50"><path id="path52" style="fill:none;stroke:#000000;stroke-width:2.88213992;stroke-linecap:butt;stroke-linejoin:miter;stroke-miterlimit:3.86400008;stroke-dasharray:none;stroke-opacity:1" d="M 1.45315,704.748 H 703.247 V 2.94505 H 1.45315 Z"/></g></g></g></svg>