<?xml version="1.0" encoding="UTF-8" standalone="no"?>
<svg xmlns:dc="http://purl.org/dc/elements/1.1/" xmlns:cc="http://creativecommons.org/ns#" xmlns:rdf="http://www.w3.org/1999/02/22-rdf-syntax-ns#" xmlns:svg="http://www.w3.org/2000/svg" xmlns="http://www.w3.org/2000/svg" viewBox="0 0 94.666664 94.666664" height="94.666664" width="94.666664" xml:space="preserve" id="svg2" version="1.1"><metadata id="metadata8"><rdf:RDF><cc:Work rdf:about=""><dc:format>image/svg+xml</dc:format><dc:type rdf:resource="http://purl.org/dc/dcmitype/StillImage"/></cc:Work></rdf:RDF></metadata><defs id="defs6"><clipPath id="clipPath60" clipPathUnits="userSpaceOnUse"><path id="path58" d="M 140,196 V 710 H 710 V 196 Z"/></clipPath></defs><g transform="matrix(1.3333333,0,0,-1.3333333,0,94.666667)" id="g10"><g transform="scale(0.1)" id="g12"><path id="path14" style="fill:#d40000;fill-opacity:1;fill-rule:nonzero;stroke:none" d="m 1.25,1.76172 h 700.82 v 708.238 H 1.25 Z"/><path id="path16" style="fill:#ffffff;fill-opacity:1;fill-rule:nonzero;stroke:none" d="m 579.691,548.711 c 0,0 30.618,-94.57 73.278,-106.641 v -77.851 c 0,0 -114.059,62.109 -73.278,184.492"/><path id="path18" style="fill:#ffffff;fill-opacity:1;fill-rule:nonzero;stroke:none" d="m 469.41,514.41 c 0,0 59.301,14.809 93.602,-67.691 4.179,-10.039 28.75,-85.27 88.976,-116.797 0,0 -61.129,-19.262 -105.66,33.359 -10.199,12.071 -29.687,40.778 -41.719,83.438 -12.031,42.66 -16.679,57.5 -35.199,67.691"/><path id="path20" style="fill:#ffffff;fill-opacity:1;fill-rule:nonzero;stroke:none" d="m 486.09,401.289 c 0,0 75.082,-101.949 165,-112.187 v -76.911 c 0,0 -169.641,30.579 -165,189.098"/><path id="path22" style="fill:#ffffff;fill-opacity:1;fill-rule:nonzero;stroke:none" d="m 432.301,253.91 c 0,0 54.687,44.488 119.578,-18.558 21.172,-20.551 40.82,-43.59 100.109,-56.563 0,0 -43.547,-52.809 -114.019,-11.09 -26.129,15.461 -41.129,43.942 -53.75,56.52 -16.68,16.722 -38.949,27.851 -51.918,29.691"/><path id="path24" style="fill:#ffffff;fill-opacity:1;fill-rule:nonzero;stroke:none" d="m 485.16,174.18 c 0,0 69.531,-67.66 165.93,-35.231 V 65.6992 c 0,0 -152.969,-22.2187 -165.93,108.4808"/><path id="path26" style="fill:#ffffff;fill-opacity:1;fill-rule:nonzero;stroke:none" d="m 370.859,461.879 h -11.8 v 189.84 c 0,9.73 -10.387,20.582 -31.207,20.582 l 1.597,-436.211 c 25.629,0 29.61,19.109 29.61,28.832 v 182.738 -0.199 h 11.211 l 0.468,0.269 c 3.403,-24.531 24.492,-43.511 49.961,-43.511 27.821,0 50.473,22.66 50.473,50.472 0,27.809 -22.652,50.43 -50.473,50.43 -25.269,0 -46.289,-18.711 -49.879,-43.012"/><path id="path28" style="fill:#ffffff;fill-opacity:1;fill-rule:nonzero;stroke:none" d="m 218.16,273.711 c 0,-9.731 -7.89,-17.621 -17.609,-17.621 -9.731,0 -17.621,7.89 -17.621,17.621 v 354.687 c 0,9.723 7.89,17.622 17.621,17.622 9.719,0 17.609,-7.899 17.609,-17.622 V 273.711"/><path id="path30" style="fill:#ffffff;fill-opacity:1;fill-rule:nonzero;stroke:none" d="m 171.719,273.711 c 0,-9.731 -7.891,-17.621 -17.617,-17.621 -9.723,0 -17.622,7.89 -17.622,17.621 v 354.687 c 0,9.723 7.899,17.622 17.622,17.622 9.726,0 17.617,-7.899 17.617,-17.622 V 273.711"/><path id="path32" style="fill:#ffffff;fill-opacity:1;fill-rule:nonzero;stroke:none" d="m 122.07,172.031 v 456.367 c 0,9.723 -7.89,17.622 -17.621,17.622 -9.7185,0 -17.6092,-7.899 -17.6092,-17.622 V 172.031 H 122.07"/><path id="path34" style="fill:#ffffff;fill-opacity:1;fill-rule:nonzero;stroke:none" d="m 266.172,273.711 c 0,-9.731 -7.891,-17.621 -17.621,-17.621 -9.723,0 -17.571,7.89 -17.571,17.621 v 354.687 c 0,9.723 7.848,17.622 17.571,17.622 9.73,0 17.621,-7.899 17.621,-17.622 V 273.711"/><path id="path36" style="fill:#ffffff;fill-opacity:1;fill-rule:nonzero;stroke:none" d="m 315.43,273.711 c 0,-9.731 -7.891,-17.621 -17.621,-17.621 -9.719,0 -17.61,7.89 -17.61,17.621 v 354.687 c 0,9.723 7.891,17.622 17.61,17.622 9.73,0 17.621,-7.899 17.621,-17.622 V 273.711"/><path id="path38" style="fill:#ffffff;fill-opacity:1;fill-rule:nonzero;stroke:none" d="m 69.2188,236.09 c -25.629,0 -29.6094,19.07 -29.6094,28.832 v 386.797 c 0,9.73 10.3906,20.582 31.2109,20.582 L 69.2188,236.09"/><path id="path40" style="fill:#ffffff;fill-opacity:1;fill-rule:nonzero;stroke:none" d="M 86.4805,148.012 H 123.32 L 113.711,96.7617 H 92.8906 l -6.4101,51.2503"/><path id="path42" style="fill:#d40000;fill-opacity:1;fill-rule:nonzero;stroke:none" d="m 413.199,419.41 c -13.937,2.969 -24.918,14.031 -27.769,28.012 l -0.16,0.039 h 28.25"/><path id="path44" style="fill:#ffffff;fill-opacity:1;fill-rule:nonzero;stroke:none" d="m 456.051,447.539 c -2.891,-14.258 -14.211,-25.551 -28.59,-28.277 l 0.469,0.148 v 28.25 -0.199 h 28.121"/><path id="path46" style="fill:#ffffff;fill-opacity:1;fill-rule:nonzero;stroke:none" d="m 455.941,463.09 0.188,-1.211 H 427.93 v 28 l -0.078,0.082 c 13.867,-2.813 24.878,-13.59 28.007,-27.34"/><path id="path48" style="fill:#d40000;fill-opacity:1;fill-rule:nonzero;stroke:none" d="m 455.941,463.09 0.188,-1.211 H 427.93 v 28 l -0.078,0.082 c 13.867,-2.77 24.878,-13.59 28.007,-27.34"/><path id="path50" style="fill:none;stroke:#d40000;stroke-width:0.960976;stroke-linecap:butt;stroke-linejoin:bevel;stroke-miterlimit:4;stroke-dasharray:none;stroke-opacity:1" d="m 455.941,463.09 0.188,-1.211 H 427.93 v 28 l -0.078,0.082 c 13.867,-2.77 24.878,-13.59 28.007,-27.34"/><path id="path52" style="fill:#d40000;fill-opacity:1;fill-rule:nonzero;stroke:none" d="m 413.52,490.27 v -28.391 h -28.211 l 0.121,0.031 c 2.89,14.07 13.98,25.16 28.09,28.051"/><g id="g54"><g clip-path="url(#clipPath60)" id="g56"><path id="path62" style="fill:#d40000;fill-opacity:1;fill-rule:nonzero;stroke:none" d="m 427.422,418.52 v 28.429 h 28.199 l -0.109,-0.039 c -2.891,-14.058 -13.992,-25.148 -28.09,-28.039"/></g></g><g transform="scale(0.994604,1.0054)" id="g64"><path id="path66" style="fill:none;stroke:#ffffff;stroke-width:14.2755003;stroke-linecap:butt;stroke-linejoin:miter;stroke-miterlimit:3.86400008;stroke-dasharray:none;stroke-opacity:1" d="M 7.23042,698.652 H 697.478 V 8.3961 H 7.23042 Z"/></g><g transform="scale(0.994605,1.0054)" id="g68"><path id="path70" style="fill:none;stroke:#000000;stroke-width:2.88213992;stroke-linecap:butt;stroke-linejoin:miter;stroke-miterlimit:3.86400008;stroke-dasharray:none;stroke-opacity:1" d="M 1.45315,704.438 H 703.247 V 2.63422 H 1.45315 Z"/></g></g></g></svg>